
<svg width="498px" height="501px" viewBox="9 0 498 501" version="1.1" xmlns="http://www.w3.org/2000/svg" xmlns:xlink="http://www.w3.org/1999/xlink">
    <!-- Generator: Sketch 3.8.1 (29687) - http://www.bohemiancoding.com/sketch -->
    <desc>Created with Sketch.</desc>
    <defs></defs>
    <g id="Icon" stroke="none" stroke-width="1" fill="none" fill-rule="evenodd" transform="translate(9.000000, 0.000000)">
        <g id="cb67417f6927eba913f1e083ec1c3238" fill="#000000">
            <path d="M235.810465,369 L23.1895349,369 C10.3901163,369 0.112936047,358.758367 0.112936047,345.918673 L0.112936047,58.9270408 C0.112936047,46.125 10.3524709,35.8457143 23.1895349,35.8457143 L82.1045058,35.8457143 L82.1045058,61.487449 L33.4290698,61.487449 C28.3093023,58.9270408 23.1895349,64.0478571 23.1895349,71.7290816 L23.1895349,333.116633 C23.1895349,340.797857 28.3093023,345.918673 35.9889535,345.918673 L225.57093,345.918673 C233.250581,345.918673 238.370349,340.797857 238.370349,333.116633 L238.370349,71.7667347 C238.370349,64.0855102 233.250581,58.9646939 225.57093,58.9646939 L176.895494,58.9646939 L176.895494,33.3229592 L235.810465,33.3229592 C248.609884,33.3229592 258.887064,43.5645918 258.887064,56.4042857 L258.887064,340.83551 C258.887064,356.197959 248.647529,369 235.810465,369 L235.810465,369 Z M82.1045058,130.693776 L212.771512,130.693776 L212.771512,150.693776 L82.1045058,150.693776 L82.1045058,130.693776 L82.1045058,130.693776 Z M82.1045058,185.564592 L212.771512,185.564592 L212.771512,205.564592 L82.1045058,205.564592 L82.1045058,185.564592 L82.1045058,185.564592 Z M82.1045058,240.435408 L212.771512,240.435408 L212.771512,260.435408 L82.1045058,260.435408 L82.1045058,240.435408 L82.1045058,240.435408 Z M82.1045058,295.306224 L212.771512,295.306224 L212.771512,315.306224 L82.1045058,315.306224 L82.1045058,295.306224 L82.1045058,295.306224 Z M46.2284884,130.693776 L59.027907,130.693776 L59.027907,150.693776 L46.2284884,150.693776 L46.2284884,130.693776 L46.2284884,130.693776 Z M46.2284884,184.711122 L59.027907,184.711122 L59.027907,204.711122 L46.2284884,204.711122 L46.2284884,184.711122 L46.2284884,184.711122 Z M46.2284884,238.728469 L59.027907,238.728469 L59.027907,258.728469 L46.2284884,258.728469 L46.2284884,238.728469 L46.2284884,238.728469 Z M46.2284884,292.745816 L59.027907,292.745816 L59.027907,312.745816 L46.2284884,312.745816 L46.2284884,292.745816 L46.2284884,292.745816 Z M199.972093,71.7667347 C207.651744,71.7667347 212.771512,76.887551 212.771512,84.5687755 L212.771512,107.650102 L46.2284884,107.650102 L46.2284884,84.5687755 C46.2284884,76.887551 51.3482558,71.7667347 59.027907,71.7667347 L94.9039244,71.7667347 L94.9039244,35.8833673 C94.9039244,15.400102 110.263227,2.34737482e-13 130.779942,2.34737482e-13 C151.259012,2.34737482e-13 166.655959,17.9228571 166.655959,35.8833673 L166.655959,71.7667347 L199.972093,71.7667347 L199.972093,71.7667347 Z M128.220058,35.8833673 C120.540407,35.8833673 115.42064,41.0041837 115.42064,48.6854082 C115.42064,56.3666327 120.540407,61.487449 128.220058,61.487449 C135.899709,61.487449 141.019477,56.3666327 141.019477,48.6854082 C141.019477,41.0041837 135.899709,35.8833673 128.220058,35.8833673 L128.220058,35.8833673 Z" id="Shape"></path>
        </g>
        <g id="clock" transform="translate(170.000000, 173.000000)">
            <circle id="Oval-1-Copy" stroke="#FFFFFF" stroke-width="50" fill="#FFFFFF" cx="151" cy="151" r="151"></circle>
            <circle id="Oval-1" stroke="#000000" stroke-width="25" cx="151" cy="151" r="151"></circle>
            <polygon id="Triangle-1-Copy" fill="#000000" points="151.36211 151.36211 276.76889 185.912958 187.629721 181.222066"></polygon>
            <polygon id="Triangle-1-Copy-2" fill="#000000" points="232.47482 47.7985612 202.382887 128.80094 151.36211 151.264524"></polygon>
        </g>
    </g>
</svg>